<svg xmlns="http://www.w3.org/2000/svg" viewBox="0 0 400 300" data-imageid="quality-check-d" imageName="Like" class="illustrations_image" style="width: 229px;"><g id="1vahgddo9o4haueaxafkmj_238_like_outline" data-name="#238_like_outline"><path d="M139.7,113a1,1,0,0,1-1-1V108.4a1,1,0,0,1,2,0V112A1,1,0,0,1,139.7,113Z" fill="#dfeaef"/><path d="M139.7,120.68a1,1,0,0,1-1-1v-3.56a1,1,0,0,1,2,0v3.56A1,1,0,0,1,139.7,120.68Z" fill="#dfeaef"/><path d="M145.34,115h-3.55a1,1,0,0,1,0-2h3.55a1,1,0,0,1,0,2Z" fill="#dfeaef"/><path d="M137.62,115h-3.56a1,1,0,0,1,0-2h3.56a1,1,0,0,1,0,2Z" fill="#dfeaef"/><path d="M266.24,126.3a1,1,0,0,1-1-1v-3.56a1,1,0,0,1,2,0v3.56A1,1,0,0,1,266.24,126.3Z" fill="#dfeaef"/><path d="M266.24,134a1,1,0,0,1-1-1v-3.55a1,1,0,0,1,2,0V133A1,1,0,0,1,266.24,134Z" fill="#dfeaef"/><path d="M271.88,128.38h-3.55a1,1,0,0,1,0-2h3.55a1,1,0,0,1,0,2Z" fill="#dfeaef"/><path d="M264.15,128.38H260.6a1,1,0,0,1,0-2h3.55a1,1,0,0,1,0,2Z" fill="#dfeaef"/><path d="M254.9,106.45a1,1,0,0,1-1-1v-3a1,1,0,0,1,2,0v3A1,1,0,0,1,254.9,106.45Z" fill="#dfeaef"/><path d="M254.9,113a1,1,0,0,1-1-1v-3a1,1,0,0,1,2,0v3A1,1,0,0,1,254.9,113Z" fill="#dfeaef"/><path d="M259.65,108.21h-3a1,1,0,0,1,0-2h3a1,1,0,0,1,0,2Z" fill="#dfeaef"/><path d="M253.14,108.21h-3a1,1,0,0,1,0-2h3a1,1,0,0,1,0,2Z" fill="#dfeaef"/><path d="M255.25,159.41,239.2,161.1l-3.45,16.34s-8.07-10.09-11-14.84c-2.43-3.91-6.37-7.66-12.76-7.66H188.44c-6.39,0-10.33,3.75-12.76,7.66-3,4.75-11,14.84-11,14.84l-3.45-16.34-16.05-1.69c-.95,9-2.14,40.27,15.42,42.73,8.08,1.6,17-10.68,17-10.68V215h45.15V191.46s9,12.28,17.05,10.68C257.39,199.68,256.2,168.36,255.25,159.41Z" fill="#68e1fd" class="target-color"/><path d="M222.78,216H177.63a1,1,0,0,1-1-1v-20.7c-3.13,3.6-9.82,10.12-16.24,8.84-7.93-1.11-13.14-7.75-15.44-19.72-2-10.64-1-21.94-.79-24.1a1,1,0,0,1,1.1-.89l16.05,1.69a1,1,0,0,1,.88.79l3,14.26c2.4-3.06,7.46-9.59,9.63-13.08,3.36-5.39,7.94-8.13,13.61-8.13H212c5.68,0,10.26,2.74,13.62,8.13,2.17,3.49,7.23,10,9.63,13.08l3-14.26a1,1,0,0,1,.88-.79l16.05-1.69a1,1,0,0,1,1.1.89c.23,2.16,1.26,13.46-.79,24.1-2.3,12-7.51,18.61-15.5,19.73-6.37,1.26-13.05-5.25-16.18-8.85V215A1,1,0,0,1,222.78,216Zm-44.15-2h43.15V191.46a1,1,0,0,1,1.8-.59c.09.12,8.7,11.74,16,10.29,17.09-2.4,15.25-34.42,14.72-40.65L240,162l-3.3,15.64a1,1,0,0,1-1.76.42c-.33-.42-8.14-10.2-11.09-14.94s-7-7.19-11.92-7.19H188.44c-4.94,0-8.95,2.42-11.91,7.19s-10.76,14.52-11.09,14.94a1,1,0,0,1-1.76-.42L160.38,162l-14.32-1.5c-.53,6.23-2.38,38.25,14.66,40.64,7.43,1.46,16-10.16,16.1-10.28a1,1,0,0,1,1.81.59Z" fill="#093f68"/><rect x="194.47" y="156.83" width="10.85" height="46.46" fill="#093f68"/><path d="M205.32,204.29H194.47a1,1,0,0,1-1-1V156.83a1,1,0,0,1,1-1h10.85a1,1,0,0,1,1,1v46.46A1,1,0,0,1,205.32,204.29Zm-9.85-2h8.85V157.83h-8.85Z" fill="#093f68"/><path d="M194.34,149.45h11a0,0,0,0,1,0,0v6.32a4.66,4.66,0,0,1-4.66,4.66H199a4.66,4.66,0,0,1-4.66-4.66v-6.32A0,0,0,0,1,194.34,149.45Z" fill="#ffc9b0"/><path d="M200.66,161.43H199a5.67,5.67,0,0,1-5.66-5.66v-6.32a1,1,0,0,1,1-1h11a1,1,0,0,1,1,1v6.32A5.67,5.67,0,0,1,200.66,161.43Zm-5.32-11v5.32a3.66,3.66,0,0,0,3.66,3.66h1.66a3.66,3.66,0,0,0,3.66-3.66v-5.32Z" fill="#093f68"/><path d="M163.58,119.25c-1.86-2.66-1-8-1.27-11-.2-2.13-.7-4.42-2.34-5.78-1.1-.91-2.58-1.3-3.6-2.29-2.88-2.8-.57-6.79,1.72-9,.4-.4.86-.94.6-1.44a1.26,1.26,0,0,0-.55-.47,5.63,5.63,0,0,1-2.39-2.82A4.47,4.47,0,0,1,158,81a3.6,3.6,0,0,0,1.41-1.1,3.32,3.32,0,0,0,.27-1.57,12.8,12.8,0,0,1,17.73-11.5,11.52,11.52,0,0,1,19.07-2.22c7.42-4.57,18.19-2.44,23.33,4.6a10.25,10.25,0,0,1,14.76,9.57c3,0,5.59,2.08,7.18,4.57a15.23,15.23,0,0,1,1.88,11.34c-1.14,5.37-5.61,8.52-6.19,14.32-.31,3.13.51,10.39-3.56,10.35-2,0-4.13-.58-6.31-.52l-8.77.28-33.9,1.06-15,.47c-2.07.06-4.72.63-6.2-1.16Z" fill="#725858"/><path d="M167.29,121.79a5.2,5.2,0,0,1-4.28-1.65,3.81,3.81,0,0,1-.24-.32h0c-1.51-2.15-1.46-5.53-1.41-8.51,0-1.12,0-2.17,0-3-.15-1.6-.52-3.88-2-5.1a8.19,8.19,0,0,0-1.51-.92,9,9,0,0,1-2.14-1.42A5.15,5.15,0,0,1,154,97.09c0-3.12,2.57-5.91,3.36-6.7a1.7,1.7,0,0,0,.28-.31h0a6.64,6.64,0,0,1-2.86-3.36c-.88-2.49.19-5.07,2.72-6.57l.26-.15a2.31,2.31,0,0,0,.79-.59,2.27,2.27,0,0,0,.14-1v-.15A13.81,13.81,0,0,1,177,65.59a12.51,12.51,0,0,1,19.71-2.24A19.18,19.18,0,0,1,220.16,68a11.25,11.25,0,0,1,15.43,9.87,10.25,10.25,0,0,1,7,5,16.26,16.26,0,0,1,2,12.08,21.22,21.22,0,0,1-3.1,6.77c-1.43,2.33-2.78,4.53-3.07,7.44-.06.57-.08,1.33-.09,2.14-.09,3.63-.22,9.11-4.43,9.11h0a25.9,25.9,0,0,1-2.94-.26,20.49,20.49,0,0,0-3.33-.26L170,121.66l-1.06,0C168.43,121.75,167.87,121.79,167.29,121.79Zm-2.89-3.12.15.19c.9,1.09,2.62,1,4.28.86l1.12-.06,57.62-1.8a21.71,21.71,0,0,1,3.65.26,21.69,21.69,0,0,0,2.7.25h0c2.1,0,2.35-3.39,2.44-7.16,0-.84,0-1.64.1-2.29.34-3.37,1.87-5.87,3.35-8.28a19.39,19.39,0,0,0,2.86-6.15,14.27,14.27,0,0,0-1.75-10.59c-1.65-2.58-4-4.11-6.27-4.11h-.07a1,1,0,0,1-.71-.3,1,1,0,0,1-.29-.74,9.26,9.26,0,0,0-13.32-8.64A1,1,0,0,1,219,69.8c-4.79-6.57-15.07-8.59-22-4.33a1,1,0,0,1-1.29-.21,10.53,10.53,0,0,0-17.41,2,1,1,0,0,1-1.27.47,11.8,11.8,0,0,0-16.35,10.6v.14a3.12,3.12,0,0,1-1.93,3.24l-.23.13a3.49,3.49,0,0,0-1.85,4.18,4.55,4.55,0,0,0,2,2.29,2.35,2.35,0,0,1,.92.87c.42.8.16,1.68-.78,2.61-1.35,1.32-2.78,3.4-2.77,5.26a3.16,3.16,0,0,0,1,2.36,7.38,7.38,0,0,0,1.68,1.09,9.65,9.65,0,0,1,1.86,1.15c2,1.7,2.51,4.5,2.7,6.46a29.9,29.9,0,0,1,.05,3.2c0,2.55-.09,5.71,1,7.33Z" fill="#093f68"/><ellipse cx="168.45" cy="120.93" rx="10.67" ry="9.19" fill="#ffc9b0"/><path d="M168.45,131.12c-6.43,0-11.67-4.57-11.67-10.19s5.24-10.19,11.67-10.19,11.67,4.57,11.67,10.19S174.88,131.12,168.45,131.12Zm0-18.38c-5.33,0-9.67,3.67-9.67,8.19s4.34,8.19,9.67,8.19,9.67-3.67,9.67-8.19S173.78,112.74,168.45,112.74Z" fill="#093f68"/><ellipse cx="230.64" cy="120.93" rx="10.67" ry="9.19" fill="#ffc9b0"/><path d="M230.64,131.12c-6.43,0-11.67-4.57-11.67-10.19s5.24-10.19,11.67-10.19,11.67,4.57,11.67,10.19S237.07,131.12,230.64,131.12Zm0-18.38c-5.33,0-9.67,3.67-9.67,8.19s4.34,8.19,9.67,8.19,9.67-3.67,9.67-8.19S236,112.74,230.64,112.74Z" fill="#093f68"/><path d="M199.83,150.89c-9.88,0-20.18-4.9-25.92-13A41.07,41.07,0,0,1,167,118.38a48.14,48.14,0,0,1,.09-10.46c.08-.67,1.45-8.4,2-8.07a6.75,6.75,0,0,0,10.13-4.69A8.69,8.69,0,0,0,191.57,89c1.13,1.43,3.07,1.93,4.87,2.21a9.88,9.88,0,0,0,4.33-.06,3.94,3.94,0,0,0,2.86-3,9.71,9.71,0,0,0,13.62,2.92A24,24,0,0,0,220.53,96c2.57,2.72,5.85,2.88,9.35,3.22a.7.7,0,0,1,.32.09.6.6,0,0,1,.19.38c1.53,6.22,2.64,12.22,1.89,18.69C230.29,135.61,218.2,150.89,199.83,150.89Z" fill="#ffc9b0"/><path d="M199.83,151.89c-10.48,0-21-5.29-26.73-13.47A41.87,41.87,0,0,1,166,118.48a48.82,48.82,0,0,1,.09-10.67c0-.08,1.13-8.19,2.48-8.86a1.17,1.17,0,0,1,1,0,5.76,5.76,0,0,0,8.63-4,1,1,0,0,1,.53-.73,1,1,0,0,1,.9,0,7.69,7.69,0,0,0,11-5.42,1,1,0,0,1,.75-.78,1,1,0,0,1,1,.35c.93,1.18,2.66,1.59,4.24,1.84a8.9,8.9,0,0,0,3.88,0,3,3,0,0,0,2.16-2.16,1,1,0,0,1,.78-.84,1,1,0,0,1,1.05.44,8.73,8.73,0,0,0,12.23,2.62.94.94,0,0,1,.78-.14,1,1,0,0,1,.64.48,23.67,23.67,0,0,0,3.13,4.67c2.16,2.29,4.92,2.55,8.11,2.86l.62.06a1.52,1.52,0,0,1,.81.28,1.5,1.5,0,0,1,.57.94c1.68,6.84,2.65,12.7,1.91,19a41.15,41.15,0,0,1-10.34,23.3,30.89,30.89,0,0,1-23.1,10.11Zm-30.35-50.72c-.53,1.79-1.34,6.15-1.43,6.87a46.76,46.76,0,0,0-.08,10.24,40,40,0,0,0,6.76,19c5.4,7.67,15.25,12.63,25.1,12.63h0c13.39,0,28.95-9.9,31.46-31.64.69-6-.22-11.55-1.8-18.07l-.32,0c-3.29-.31-6.69-.64-9.37-3.48a21.46,21.46,0,0,1-2.92-4.17,10.69,10.69,0,0,1-13-2.32,5.37,5.37,0,0,1-2.81,2,13.61,13.61,0,0,1-9-1.31,9.66,9.66,0,0,1-12.2,5.69,8,8,0,0,1-4.09,4.56A7.87,7.87,0,0,1,169.48,101.17Zm-.93-.46Zm1.18-.21Z" fill="#093f68"/><circle cx="184.93" cy="114.04" r="2.98" fill="#093f68"/><circle cx="215.66" cy="114.04" r="2.98" fill="#093f68"/><path d="M211.57,128.41a11.74,11.74,0,1,1-23.48,0Z" fill="#fff"/><path d="M199.83,141.15a12.75,12.75,0,0,1-12.74-12.74,1,1,0,0,1,1-1h23.48a1,1,0,0,1,1,1A12.75,12.75,0,0,1,199.83,141.15Zm-10.69-11.74a10.74,10.74,0,0,0,21.38,0Z" fill="#093f68"/><path d="M199.68,125.05a19.38,19.38,0,0,1-2.92-.24,1,1,0,0,1,.35-2,14.15,14.15,0,0,0,4.34.06c.13-.91-1-4-2.51-7a1,1,0,0,1,1.78-.93c1,2,3.39,6.89,2.52,8.82a1.63,1.63,0,0,1-1.13,1A9.89,9.89,0,0,1,199.68,125.05Z" fill="#093f68"/><path d="M176.85,105.24a2,2,0,0,1-.2-4l14.12-1.48a2,2,0,0,1,2.2,1.78,2,2,0,0,1-1.78,2.2l-14.13,1.48Z" fill="#093f68"/><path d="M225.35,106.56a2.31,2.31,0,0,1-.37,0l-14-2.64a2,2,0,1,1,.74-3.93l14,2.64a2,2,0,0,1-.37,4Z" fill="#093f68"/><path d="M248.23,149.5v-9.76a4.11,4.11,0,1,0-8.22,0v12.32h0c-.93,1.52-1.47,3.92-1.47,7.73,0,10.33,4.82,12.11,9.76,12.11s11.06-3.84,11.66-6.76C261.09,159.82,252.83,149.92,248.23,149.5Z" fill="#ffc9b0"/><path d="M248.34,172.9c-4.62,0-10.76-1.36-10.76-13.11,0-3.55.47-6.15,1.43-7.93V139.74a5.11,5.11,0,1,1,10.22,0v8.93c3,.8,6.22,4,8.25,6.77,1.3,1.76,4.25,6.24,3.5,9.9S253.52,172.9,248.34,172.9ZM241,151.85a.94.94,0,0,1-.11.73c-.89,1.46-1.32,3.82-1.32,7.21,0,9.79,4.42,11.11,8.76,11.11,4.78,0,10.23-3.77,10.68-6,.4-2-.81-5.14-3.15-8.31-2.5-3.37-5.75-5.95-7.73-6.14a1,1,0,0,1-.91-1v-9.76a3.11,3.11,0,1,0-6.22,0Z" fill="#093f68"/><rect x="242.34" y="147.29" width="17.95" height="4.77" rx="2.38" fill="#ffc9b0"/><path d="M257.91,153.06H244.73a3.39,3.39,0,1,1,0-6.77h13.18a3.39,3.39,0,1,1,0,6.77Zm-13.18-4.77a1.39,1.39,0,1,0,0,2.77h13.18a1.39,1.39,0,1,0,0-2.77Z" fill="#093f68"/><rect x="242.34" y="152.06" width="17.95" height="4.77" rx="2.38" fill="#ffc9b0"/><path d="M257.91,157.83H244.73a3.39,3.39,0,1,1,0-6.77h13.18a3.39,3.39,0,1,1,0,6.77Zm-13.18-4.77a1.39,1.39,0,1,0,0,2.77h13.18a1.39,1.39,0,1,0,0-2.77Z" fill="#093f68"/><rect x="242.34" y="156.83" width="17.95" height="4.77" rx="2.38" fill="#ffc9b0"/><path d="M257.91,162.6H244.73a3.39,3.39,0,1,1,0-6.77h13.18a3.39,3.39,0,1,1,0,6.77Zm-13.18-4.77a1.39,1.39,0,1,0,0,2.77h13.18a1.39,1.39,0,1,0,0-2.77Z" fill="#093f68"/><path d="M258.67,168.37a1,1,0,0,1-.71-.3,1,1,0,0,1,0-1.41A4.16,4.16,0,0,0,259.3,164a1.38,1.38,0,0,0-1.39-1.38H244.73a1.39,1.39,0,1,0,0,2.77h7.69a1,1,0,0,1,0,2h-7.69a3.39,3.39,0,1,1,0-6.77h13.18A3.39,3.39,0,0,1,261.3,164a6.05,6.05,0,0,1-1.92,4.1A1,1,0,0,1,258.67,168.37Z" fill="#093f68"/><path d="M151.77,149.5v-9.76a4.11,4.11,0,1,1,8.22,0v12.32h0c.93,1.52,1.47,3.92,1.47,7.73,0,10.33-4.82,12.11-9.76,12.11s-11.06-3.84-11.66-6.76C138.91,159.82,147.17,149.92,151.77,149.5Z" fill="#ffc9b0"/><path d="M151.66,172.9c-5.18,0-11.91-4-12.64-7.56s2.2-8.14,3.5-9.89c2-2.74,5.29-6,8.25-6.78v-8.93a5.11,5.11,0,0,1,10.22,0v12.12c1,1.78,1.43,4.38,1.43,7.93C162.42,171.54,156.28,172.9,151.66,172.9Zm4.22-36.27a3.11,3.11,0,0,0-3.11,3.11v9.76a1,1,0,0,1-.91,1c-2,.19-5.23,2.77-7.73,6.15-2.34,3.16-3.55,6.34-3.15,8.3.45,2.19,5.9,6,10.68,6,4.34,0,8.76-1.32,8.76-11.11,0-3.39-.43-5.75-1.32-7.2a1,1,0,0,1-.11-.8v-12A3.12,3.12,0,0,0,155.88,136.63Zm-4.11,12.87h0Z" fill="#093f68"/><rect x="139.7" y="147.29" width="17.95" height="4.77" rx="2.38" transform="translate(297.36 299.36) rotate(-180)" fill="#ffc9b0"/><path d="M155.27,153.06H142.09a3.39,3.39,0,1,1,0-6.77h13.18a3.39,3.39,0,1,1,0,6.77Zm-13.18-4.77a1.39,1.39,0,1,0,0,2.77h13.18a1.39,1.39,0,1,0,0-2.77Z" fill="#093f68"/><rect x="139.7" y="152.06" width="17.95" height="4.77" rx="2.38" transform="translate(297.36 308.89) rotate(180)" fill="#ffc9b0"/><path d="M155.27,157.83H142.09a3.39,3.39,0,1,1,0-6.77h13.18a3.39,3.39,0,1,1,0,6.77Zm-13.18-4.77a1.39,1.39,0,1,0,0,2.77h13.18a1.39,1.39,0,1,0,0-2.77Z" fill="#093f68"/><rect x="139.7" y="156.83" width="17.95" height="4.77" rx="2.38" transform="translate(297.36 318.43) rotate(180)" fill="#ffc9b0"/><path d="M155.27,162.6H142.09a3.39,3.39,0,1,1,0-6.77h13.18a3.39,3.39,0,1,1,0,6.77Zm-13.18-4.77a1.39,1.39,0,1,0,0,2.77h13.18a1.39,1.39,0,1,0,0-2.77Z" fill="#093f68"/><path d="M141.33,168.37a1,1,0,0,1-.71-.29,6.05,6.05,0,0,1-1.92-4.1,3.39,3.39,0,0,1,3.39-3.38h13.18a3.39,3.39,0,1,1,0,6.77h-7.69a1,1,0,0,1,0-2h7.69a1.39,1.39,0,1,0,0-2.77H142.09A1.38,1.38,0,0,0,140.7,164a4.16,4.16,0,0,0,1.33,2.68,1,1,0,0,1-.7,1.71Z" fill="#093f68"/><path d="M233.23,188.47l-.25,0a1,1,0,0,1-.72-1.21l2.52-10a1,1,0,0,1,1.22-.73,1,1,0,0,1,.72,1.22l-2.52,10A1,1,0,0,1,233.23,188.47Z" fill="#093f68"/><path d="M190.57,123.64H179.3a5.85,5.85,0,0,1-5.84-5.84v-4.63a5.85,5.85,0,0,1,5.84-5.84h11.27a5.85,5.85,0,0,1,5.84,5.84v4.63A5.85,5.85,0,0,1,190.57,123.64ZM179.3,109.33a3.84,3.84,0,0,0-3.84,3.84v4.63a3.84,3.84,0,0,0,3.84,3.84h11.27a3.84,3.84,0,0,0,3.84-3.84v-4.63a3.84,3.84,0,0,0-3.84-3.84Z" fill="#093f68"/><path d="M220.51,123.64H209.24a5.85,5.85,0,0,1-5.84-5.84v-4.63a5.85,5.85,0,0,1,5.84-5.84h11.27a5.85,5.85,0,0,1,5.84,5.84v4.63A5.85,5.85,0,0,1,220.51,123.64Zm-11.27-14.31a3.84,3.84,0,0,0-3.84,3.84v4.63a3.84,3.84,0,0,0,3.84,3.84h11.27a3.84,3.84,0,0,0,3.84-3.84v-4.63a3.84,3.84,0,0,0-3.84-3.84Z" fill="#093f68"/><path d="M204.4,115.34a1,1,0,0,1-.62-.21c-3.14-2.47-7.05,0-7.22.06a1,1,0,0,1-1.07-1.69c.21-.13,5.26-3.3,9.53.06a1,1,0,0,1-.62,1.78Z" fill="#093f68"/><path d="M174.46,112.74h-7.59a1,1,0,0,1,0-2h7.59a1,1,0,0,1,0,2Z" fill="#093f68"/><path d="M233.08,112.74h-7.59a1,1,0,0,1,0-2h7.59a1,1,0,0,1,0,2Z" fill="#093f68"/><path d="M181.86,206.35a1,1,0,0,1-1-1v-38a1,1,0,0,1,2,0v38A1,1,0,0,1,181.86,206.35Z" fill="#093f68"/><path d="M218.55,206.35a1,1,0,0,1-1-1v-38a1,1,0,0,1,2,0v38A1,1,0,0,1,218.55,206.35Z" fill="#093f68"/><rect x="121.3" y="179.82" width="157.4" height="59.64" rx="6.64" fill="#fff"/><path d="M272.07,179.82a6.63,6.63,0,0,1,6.63,6.64v46.37a6.63,6.63,0,0,1-6.63,6.63H127.93a6.63,6.63,0,0,1-6.63-6.63V186.46a6.63,6.63,0,0,1,6.63-6.64H272.07m0-2H127.93a8.65,8.65,0,0,0-8.63,8.64v46.37a8.64,8.64,0,0,0,8.63,8.63H272.07a8.64,8.64,0,0,0,8.63-8.63V186.46a8.65,8.65,0,0,0-8.63-8.64Z" fill="#093f68"/><rect x="133.76" y="203.29" width="14.6" height="24.1" rx="2.29" fill="#68e1fd" class="target-color"/><path d="M146.07,228.39h-10a3.29,3.29,0,0,1-3.29-3.29V205.58a3.3,3.3,0,0,1,3.29-3.29h10a3.3,3.3,0,0,1,3.29,3.29V225.1A3.29,3.29,0,0,1,146.07,228.39Zm-10-24.1a1.29,1.29,0,0,0-1.29,1.29V225.1a1.29,1.29,0,0,0,1.29,1.29h10a1.29,1.29,0,0,0,1.29-1.29V205.58a1.29,1.29,0,0,0-1.29-1.29Z" fill="#093f68"/><path d="M148.36,205.58s6.66-3.84,8.08-10a30.61,30.61,0,0,0,.71-10.63s3.54-1.56,5.95.49,3.76,6.88,2.2,14.82c0,0,9.07-.78,12.4.14s4.82,1.63,4.82,4.11a8.93,8.93,0,0,1-1.77,4.75s1.56.64,1.35,3.12a4.07,4.07,0,0,1-1.92,3.33,4.29,4.29,0,0,1-.14,3.19,5.27,5.27,0,0,1-2.13,2.9,6.45,6.45,0,0,1-.49,3.4c-.78,1.78-1.56,2.91-2.84,3s-18.57,0-20.55,0-5.83-2.25-5.83-2.25V206.28" fill="#fff"/><path d="M169.06,229.2l-11.89,0H154c-2.19,0-5.91-2.14-6.33-2.38a1,1,0,0,1-.5-.87V206.28a1,1,0,0,1,.17-.55,1,1,0,0,1,.49-1c.06,0,6.3-3.72,7.6-9.37a29.86,29.86,0,0,0,.7-10.26,1,1,0,0,1,.59-1.07c.16-.07,4.15-1.78,7,.65,1.72,1.47,4.29,5.28,2.76,14.48,2.68-.18,8.74-.48,11.46.27,3.25.91,5.55,1.8,5.55,5.08a9.19,9.19,0,0,1-1.43,4.54,4.23,4.23,0,0,1,1,3.41,5.27,5.27,0,0,1-1.76,3.65,6.51,6.51,0,0,1-.34,3.1,6.57,6.57,0,0,1-2,3.07,7.73,7.73,0,0,1-.63,3.33c-.79,1.79-1.78,3.46-3.69,3.57C174.19,229.19,171.94,229.2,169.06,229.2Zm-19.86-3.86c1.47.8,3.72,1.83,4.83,1.83h3.15c5.31,0,16.38,0,17.35,0,.67,0,1.24-.72,2-2.38a5.63,5.63,0,0,0,.43-2.83,1,1,0,0,1,.5-1,4.3,4.3,0,0,0,1.66-2.35,3.6,3.6,0,0,0,.19-2.43,1.06,1.06,0,0,1,.45-1.34,3.1,3.1,0,0,0,1.37-2.52c.14-1.63-.66-2.07-.76-2.12a1,1,0,0,1-.38-1.53,7.9,7.9,0,0,0,1.56-4.13c0-1.68-.69-2.21-4.09-3.15-3.12-.86-12-.11-12.05-.11a1,1,0,0,1-.83-.32,1,1,0,0,1-.23-.87c1.29-6.58.59-11.76-1.87-13.85a4.63,4.63,0,0,0-4.22-.57,33.48,33.48,0,0,1-.82,10.16c-1.32,5.76-6.76,9.54-8.21,10.45v19.1Z" fill="#093f68"/><path d="M195.15,198.18h4.55v21.44h10.87v4.12H195.15Z" fill="#fff"/><path d="M199.7,198.18v21.44h10.87v4.12H195.15V198.18h4.55m0-2h-4.55a2,2,0,0,0-2,2v25.56a2,2,0,0,0,2,2h15.42a2,2,0,0,0,2-2v-4.12a2,2,0,0,0-2-2H201.7V198.18a2,2,0,0,0-2-2Z" fill="#093f68"/><path d="M213.78,198.18h4.55v25.56h-4.55Z" fill="#fff"/><path d="M218.33,198.18v25.56h-4.55V198.18h4.55m0-2h-4.55a2,2,0,0,0-2,2v25.56a2,2,0,0,0,2,2h4.55a2,2,0,0,0,2-2V198.18a2,2,0,0,0-2-2Z" fill="#093f68"/><path d="M223.92,198.18h4.55V209h.22l10.58-10.83h6.14L233.46,210l12.74,13.76h-6.39l-11.08-12.57h-.26v12.57h-4.55Z" fill="#fff"/><path d="M245.41,198.18h0m0,0L233.46,210l12.74,13.76h-6.39l-11.08-12.57h-.26v12.57h-4.55V198.18h4.55V209h.22l10.58-10.83h6.14m0-2h-6.14a2,2,0,0,0-1.43.6l-7.37,7.54v-6.14a2,2,0,0,0-2-2h-4.55a2,2,0,0,0-2,2v25.56a2,2,0,0,0,2,2h4.55a2,2,0,0,0,2-2v-7.56l7.84,8.88a2,2,0,0,0,1.5.68h6.39a2,2,0,0,0,1.47-3.36L236.24,210l10.53-10.4a2,2,0,0,0-1.36-3.46Zm0,4Z" fill="#093f68"/><path d="M248.66,198.18h16.93v4.11H253.21v6.28h11.73v4.12H253.21v6.93h13v4.12H248.66Z" fill="#fff"/><path d="M265.59,198.18v4.11H253.21v6.28h11.73v4.12H253.21v6.93h13v4.12H248.66V198.18h16.93m0-2H248.66a2,2,0,0,0-2,2v25.56a2,2,0,0,0,2,2h17.58a2,2,0,0,0,2-2v-4.12a2,2,0,0,0-2-2h-11v-2.93h9.73a2,2,0,0,0,2-2v-4.12a2,2,0,0,0-2-2h-9.73v-2.28h10.38a2,2,0,0,0,2-2v-4.11a2,2,0,0,0-2-2Z" fill="#093f68"/></g></svg>