<svg xmlns="http://www.w3.org/2000/svg" viewBox="0 0 400 300" data-imageid="new-message-38" imageName="Wireframe" class="illustrations_image" style="width: 229px;"><g id="4bcgznts9fvlkrba6dtdnr_33_wireframe_outline" data-name="#33_wireframe_outline"><path d="M200,189.11a1,1,0,0,1-1-1V153a1,1,0,0,1,2,0v35.16A1,1,0,0,1,200,189.11Z" fill="#093f68"/><path d="M278.38,184.41a1,1,0,0,1-1-1V170.65H122.63v12.76a1,1,0,0,1-2,0V169.65a1,1,0,0,1,1-1H278.38a1,1,0,0,1,1,1v13.76A1,1,0,0,1,278.38,184.41Z" fill="#093f68"/><path d="M145.67,187.88v35.44a4.47,4.47,0,0,1-4.47,4.47H102.05a4.47,4.47,0,0,1-4.47-4.47V187.88a4.47,4.47,0,0,1,4.47-4.47H141.2A4.47,4.47,0,0,1,145.67,187.88Z" fill="#fff"/><path d="M141.2,228.79H102.05a5.48,5.48,0,0,1-5.47-5.47V187.88a5.48,5.48,0,0,1,5.47-5.47H141.2a5.48,5.48,0,0,1,5.47,5.47v35.44A5.48,5.48,0,0,1,141.2,228.79Zm-39.15-44.38a3.48,3.48,0,0,0-3.47,3.47v35.44a3.48,3.48,0,0,0,3.47,3.47H141.2a3.48,3.48,0,0,0,3.47-3.47V187.88a3.48,3.48,0,0,0-3.47-3.47Z" fill="#093f68"/><path d="M145.67,187.88v4.05H97.58v-4.05a4.47,4.47,0,0,1,4.47-4.47H141.2A4.47,4.47,0,0,1,145.67,187.88Z" fill="#68e1fd" class="target-color"/><path d="M145.67,192.93H97.58a1,1,0,0,1-1-1v-4.05a5.48,5.48,0,0,1,5.47-5.47H141.2a5.48,5.48,0,0,1,5.47,5.47v4.05A1,1,0,0,1,145.67,192.93Zm-47.09-2h46.09v-3.05a3.48,3.48,0,0,0-3.47-3.47H102.05a3.48,3.48,0,0,0-3.47,3.47Z" fill="#093f68"/><path d="M137.28,201.1H106a1,1,0,0,1,0-2h31.31a1,1,0,0,1,0,2Z" fill="#dfeaef"/><path d="M137.28,207.56H106a1,1,0,1,1,0-2h31.31a1,1,0,1,1,0,2Z" fill="#dfeaef"/><rect x="105.97" y="212.95" width="31.31" height="7.1" rx="3.55" fill="#68e1fd" class="target-color"/><path d="M133.73,221.05H109.52a4.55,4.55,0,1,1,0-9.1h24.21a4.55,4.55,0,1,1,0,9.1ZM109.52,214a2.55,2.55,0,1,0,0,5.1h24.21a2.55,2.55,0,1,0,0-5.1Z" fill="#093f68"/><path d="M224,187.88v35.44a4.46,4.46,0,0,1-4.46,4.47H180.42a4.46,4.46,0,0,1-4.46-4.47V187.88a4.46,4.46,0,0,1,4.46-4.47h39.16A4.46,4.46,0,0,1,224,187.88Z" fill="#fff"/><path d="M219.58,228.79H180.42a5.48,5.48,0,0,1-5.46-5.47V187.88a5.48,5.48,0,0,1,5.46-5.47h39.16a5.48,5.48,0,0,1,5.46,5.47v35.44A5.48,5.48,0,0,1,219.58,228.79Zm-39.16-44.38a3.47,3.47,0,0,0-3.46,3.47v35.44a3.47,3.47,0,0,0,3.46,3.47h39.16a3.47,3.47,0,0,0,3.46-3.47V187.88a3.47,3.47,0,0,0-3.46-3.47Z" fill="#093f68"/><path d="M224,187.88v4.05H176v-4.05a4.46,4.46,0,0,1,4.46-4.47h39.16A4.46,4.46,0,0,1,224,187.88Z" fill="#68e1fd" class="target-color"/><path d="M224,192.93H176a1,1,0,0,1-1-1v-4.05a5.48,5.48,0,0,1,5.46-5.47h39.16a5.48,5.48,0,0,1,5.46,5.47v4.05A1,1,0,0,1,224,192.93Zm-47.08-2H223v-3.05a3.47,3.47,0,0,0-3.46-3.47H180.42a3.47,3.47,0,0,0-3.46,3.47Z" fill="#093f68"/><path d="M215.66,201.1H184.34a1,1,0,0,1,0-2h31.32a1,1,0,0,1,0,2Z" fill="#dfeaef"/><path d="M215.66,207.56H184.34a1,1,0,1,1,0-2h31.32a1,1,0,1,1,0,2Z" fill="#dfeaef"/><rect x="184.34" y="212.95" width="31.31" height="7.1" rx="3.55" fill="#68e1fd" class="target-color"/><path d="M212.11,221.05H187.89a4.55,4.55,0,1,1,0-9.1h24.22a4.55,4.55,0,0,1,0,9.1ZM187.89,214a2.55,2.55,0,1,0,0,5.1h24.22a2.55,2.55,0,0,0,0-5.1Z" fill="#093f68"/><path d="M302.42,187.88v35.44a4.47,4.47,0,0,1-4.47,4.47H258.8a4.47,4.47,0,0,1-4.47-4.47V187.88a4.47,4.47,0,0,1,4.47-4.47H298A4.47,4.47,0,0,1,302.42,187.88Z" fill="#fff"/><path d="M298,228.79H258.8a5.48,5.48,0,0,1-5.47-5.47V187.88a5.48,5.48,0,0,1,5.47-5.47H298a5.48,5.48,0,0,1,5.47,5.47v35.44A5.48,5.48,0,0,1,298,228.79ZM258.8,184.41a3.48,3.48,0,0,0-3.47,3.47v35.44a3.48,3.48,0,0,0,3.47,3.47H298a3.48,3.48,0,0,0,3.47-3.47V187.88a3.48,3.48,0,0,0-3.47-3.47Z" fill="#093f68"/><path d="M302.42,187.88v4.05H254.33v-4.05a4.47,4.47,0,0,1,4.47-4.47H298A4.47,4.47,0,0,1,302.42,187.88Z" fill="#68e1fd" class="target-color"/><path d="M302.42,192.93H254.33a1,1,0,0,1-1-1v-4.05a5.48,5.48,0,0,1,5.47-5.47H298a5.48,5.48,0,0,1,5.47,5.47v4.05A1,1,0,0,1,302.42,192.93Zm-47.09-2h46.09v-3.05a3.48,3.48,0,0,0-3.47-3.47H258.8a3.48,3.48,0,0,0-3.47,3.47Z" fill="#093f68"/><path d="M294,201.1H262.72a1,1,0,0,1,0-2H294a1,1,0,0,1,0,2Z" fill="#dfeaef"/><path d="M294,207.56H262.72a1,1,0,0,1,0-2H294a1,1,0,0,1,0,2Z" fill="#dfeaef"/><rect x="262.72" y="212.95" width="31.31" height="7.1" rx="3.55" fill="#68e1fd" class="target-color"/><path d="M290.48,221.05H266.27a4.55,4.55,0,1,1,0-9.1h24.21a4.55,4.55,0,0,1,0,9.1ZM266.27,214a2.55,2.55,0,1,0,0,5.1h24.21a2.55,2.55,0,0,0,0-5.1Z" fill="#093f68"/><path d="M265,78.38V149.2a6.17,6.17,0,0,1-6.16,6.17H141.21a6.17,6.17,0,0,1-6.16-6.17V78.38a6.16,6.16,0,0,1,6.16-6.17H258.79A6.16,6.16,0,0,1,265,78.38Z" fill="#fff"/><path d="M258.79,156.37H141.21a7.18,7.18,0,0,1-7.16-7.17V78.38a7.18,7.18,0,0,1,7.16-7.17H258.79A7.18,7.18,0,0,1,266,78.38V149.2A7.18,7.18,0,0,1,258.79,156.37ZM141.21,73.21a5.17,5.17,0,0,0-5.16,5.17V149.2a5.17,5.17,0,0,0,5.16,5.17H258.79A5.17,5.17,0,0,0,264,149.2V78.38a5.17,5.17,0,0,0-5.16-5.17Z" fill="#093f68"/><path d="M265,78.38V84H135.05V78.38a6.16,6.16,0,0,1,6.16-6.17H258.79A6.16,6.16,0,0,1,265,78.38Z" fill="#68e1fd" class="target-color"/><path d="M265,85H135.05a1,1,0,0,1-1-1V78.38a7.18,7.18,0,0,1,7.16-7.17H258.79A7.18,7.18,0,0,1,266,78.38V84A1,1,0,0,1,265,85Zm-128.9-2H264V78.38a5.17,5.17,0,0,0-5.16-5.17H141.21a5.17,5.17,0,0,0-5.16,5.17Z" fill="#093f68"/><rect x="146.28" y="93.98" width="27.23" height="27.23" fill="#f56132"/><path d="M173.5,122.2H146.28a1,1,0,0,1-1-1V94a1,1,0,0,1,1-1H173.5a1,1,0,0,1,1,1V121.2A1,1,0,0,1,173.5,122.2Zm-26.22-2H172.5V95H147.28Z" fill="#093f68"/><path d="M173.5,132H146.28a1,1,0,0,1,0-2H173.5a1,1,0,0,1,0,2Z" fill="#dfeaef"/><path d="M173.5,137.82H146.28a1,1,0,0,1,0-2H173.5a1,1,0,0,1,0,2Z" fill="#dfeaef"/><path d="M169.59,143.63h-19.4a1,1,0,0,1,0-2h19.4a1,1,0,1,1,0,2Z" fill="#dfeaef"/><path d="M146.28,122.2a1,1,0,0,1-.71-.29,1,1,0,0,1,0-1.41L172.8,93.27a1,1,0,0,1,1.41,1.41L147,121.91A1,1,0,0,1,146.28,122.2Z" fill="#093f68"/><path d="M173.5,122.2a1,1,0,0,1-.7-.29L145.57,94.68A1,1,0,1,1,147,93.27l27.23,27.23a1,1,0,0,1,0,1.41A1,1,0,0,1,173.5,122.2Z" fill="#093f68"/><rect x="186.39" y="93.98" width="27.23" height="27.23" fill="#70cc40"/><path d="M213.61,122.2H186.39a1,1,0,0,1-1-1V94a1,1,0,0,1,1-1h27.22a1,1,0,0,1,1,1V121.2A1,1,0,0,1,213.61,122.2Zm-26.22-2h25.22V95H187.39Z" fill="#093f68"/><path d="M213.61,132H186.39a1,1,0,0,1,0-2h27.22a1,1,0,0,1,0,2Z" fill="#dfeaef"/><path d="M213.61,137.82H186.39a1,1,0,0,1,0-2h27.22a1,1,0,0,1,0,2Z" fill="#dfeaef"/><path d="M209.7,143.63H190.3a1,1,0,0,1,0-2h19.4a1,1,0,0,1,0,2Z" fill="#dfeaef"/><path d="M186.39,122.2a1,1,0,0,1-.71-.29,1,1,0,0,1,0-1.41l27.23-27.23a1,1,0,1,1,1.41,1.41l-27.23,27.23A1,1,0,0,1,186.39,122.2Z" fill="#093f68"/><path d="M213.61,122.2a1,1,0,0,1-.7-.29L185.68,94.68a1,1,0,1,1,1.41-1.41l27.23,27.23a1,1,0,0,1,0,1.41A1,1,0,0,1,213.61,122.2Z" fill="#093f68"/><rect x="226.5" y="93.98" width="27.23" height="27.23" fill="#ffbc0e"/><path d="M253.72,122.2H226.5a1,1,0,0,1-1-1V94a1,1,0,0,1,1-1h27.22a1,1,0,0,1,1,1V121.2A1,1,0,0,1,253.72,122.2Zm-26.22-2h25.22V95H227.5Z" fill="#093f68"/><path d="M253.72,132H226.5a1,1,0,0,1,0-2h27.22a1,1,0,0,1,0,2Z" fill="#dfeaef"/><path d="M253.72,137.82H226.5a1,1,0,0,1,0-2h27.22a1,1,0,0,1,0,2Z" fill="#dfeaef"/><path d="M249.81,143.63h-19.4a1,1,0,1,1,0-2h19.4a1,1,0,0,1,0,2Z" fill="#dfeaef"/><path d="M226.5,122.2a1,1,0,0,1-.71-.29,1,1,0,0,1,0-1.41L253,93.27a1,1,0,1,1,1.41,1.41L227.2,121.91A1,1,0,0,1,226.5,122.2Z" fill="#093f68"/><path d="M253.72,122.2a1,1,0,0,1-.7-.29L225.79,94.68a1,1,0,0,1,1.41-1.41l27.23,27.23a1,1,0,0,1,0,1.41A1,1,0,0,1,253.72,122.2Z" fill="#093f68"/></g></svg>