<svg xmlns="http://www.w3.org/2000/svg" viewBox="0 0 400 300" data-imageid="completed-task-7" imageName="Personal data" class="illustrations_image" style="width: 229px;"><g id="q7tz7lz3rrlyrx5vy1dc8_256_personal_data_outline" data-name="#256_personal_data_outline"><path d="M286.62,84.24V189.87a9.21,9.21,0,0,1-9.21,9.21H125.08a9.22,9.22,0,0,1-9.2-9.21V84.24a9.2,9.2,0,0,1,9.2-9.21H277.41A9.21,9.21,0,0,1,286.62,84.24Z" fill="#fff"/><path d="M277.41,200.08H125.08a10.23,10.23,0,0,1-7.43-3.23,10.07,10.07,0,0,1-2.77-7V84.24A10.22,10.22,0,0,1,125.08,74H277.41a10.22,10.22,0,0,1,10.21,10.21V189.87A10.22,10.22,0,0,1,277.41,200.08ZM125.08,76a8.21,8.21,0,0,0-8.2,8.21V189.87a8.13,8.13,0,0,0,2.22,5.61,8.24,8.24,0,0,0,6,2.6H277.41a8.22,8.22,0,0,0,8.21-8.21V84.24A8.22,8.22,0,0,0,277.41,76Z" fill="#093f68"/><rect x="125.08" y="83.5" width="152.33" height="90.23" fill="#68e1fd" class="target-color"/><path d="M277.41,174.74H125.08a1,1,0,0,1-1-1V83.5a1,1,0,0,1,1-1H277.41a1,1,0,0,1,1,1v90.24A1,1,0,0,1,277.41,174.74Zm-151.33-2H276.41V84.5H126.08Z" fill="#093f68"/><path d="M221.35,199.08h-40.2s3.69,11.84-11.34,25.16h62.87C217.65,210.92,221.35,199.08,221.35,199.08Z" fill="#68e1fd" class="target-color"/><path d="M232.68,225.24H169.81a1,1,0,0,1-.93-.65,1,1,0,0,1,.27-1.1c14.38-12.74,11.08-24,11-24.11a1,1,0,0,1,.15-.89,1,1,0,0,1,.8-.41h40.2a1,1,0,0,1,.8.41,1,1,0,0,1,.15.89c-.14.47-3.25,11.44,11,24.11a1,1,0,0,1,.27,1.1A1,1,0,0,1,232.68,225.24Zm-60.32-2h57.78c-10.73-10.49-10.54-19.81-10-23.16H182.38C182.9,203.43,183.09,212.75,172.36,223.24Z" fill="#093f68"/><path d="M201.25,190.48a5,5,0,1,1,5-5A5,5,0,0,1,201.25,190.48Zm0-8a3,3,0,1,0,3,3A3,3,0,0,0,201.25,182.5Z" fill="#093f68"/><rect x="161.41" y="224.24" width="79.68" height="5.95" rx="2.98" fill="#68e1fd" class="target-color"/><path d="M238.11,231.19H164.38a4,4,0,0,1,0-7.95h73.73a4,4,0,1,1,0,7.95Zm-73.73-5.95a2,2,0,0,0,0,3.95h73.73a2,2,0,1,0,0-3.95Z" fill="#093f68"/><rect x="139.01" y="93.4" width="48.48" height="40.94" rx="5.67" fill="#fff"/><path d="M181.82,135.35H144.67a6.67,6.67,0,0,1-6.66-6.67V99.07a6.67,6.67,0,0,1,6.66-6.67h37.15a6.67,6.67,0,0,1,6.67,6.67v29.61A6.67,6.67,0,0,1,181.82,135.35ZM144.67,94.4A4.67,4.67,0,0,0,140,99.07v29.61a4.67,4.67,0,0,0,4.66,4.67h37.15a4.68,4.68,0,0,0,4.67-4.67V99.07a4.68,4.68,0,0,0-4.67-4.67Z" fill="#093f68"/><path d="M261.53,101H198.4a2,2,0,0,1,0-4h63.13a2,2,0,0,1,0,4Z" fill="#fff"/><path d="M261.53,115.26H198.4a2,2,0,0,1,0-4h63.13a2,2,0,0,1,0,4Z" fill="#fff"/><path d="M255.37,129.57H244.9a2,2,0,0,1,0-4h10.47a2,2,0,0,1,0,4Z" fill="#fff"/><path d="M232.68,129.57H198.4a2,2,0,0,1,0-4h34.28a2,2,0,0,1,0,4Z" fill="#fff"/><path d="M267.68,164H139a1,1,0,0,1-1-1V144.92a1,1,0,0,1,1-1H267.68a1,1,0,0,1,1,1V163A1,1,0,0,1,267.68,164ZM140,162H266.68V145.92H140Z" fill="#fff"/><path d="M220.89,164a1,1,0,0,1-1-1V144.92a1,1,0,1,1,2,0V163A1,1,0,0,1,220.89,164Z" fill="#fff"/><path d="M147.27,134.35V125a10.86,10.86,0,0,1,10.86-10.86h10.36A10.85,10.85,0,0,1,179.34,125v9.26Z" fill="#68e1fd" class="target-color"/><path d="M147.27,135.35a1,1,0,0,1-.71-.3,1,1,0,0,1-.29-.7V125a11.87,11.87,0,0,1,11.86-11.86h10.36A11.86,11.86,0,0,1,180.34,125v9.26a1,1,0,0,1-1,1l-32.08.06Zm10.86-20.18a9.87,9.87,0,0,0-9.86,9.86v8.31l30.07-.05V125a9.86,9.86,0,0,0-9.85-9.86Z" fill="#093f68"/><polygon points="160.72 115.24 163.67 129.35 166.18 115.24 160.72 115.24" fill="#093f68"/><path d="M163.67,130.35a1,1,0,0,1-1-.8l-3-14.11a1,1,0,0,1,.21-.83,1,1,0,0,1,.77-.37h5.46a1,1,0,0,1,.77.36,1,1,0,0,1,.21.81l-2.5,14.11a1,1,0,0,1-1,.83ZM162,116.24l1.64,7.84,1.4-7.84Z" fill="#093f68"/><path d="M161.94,70a12.54,12.54,0,0,1,2-.16c3.14,0,6.34-.08,9.2,1.32a17.38,17.38,0,0,1,9.68,15.5l-.66,12.85H144.61a7.76,7.76,0,0,1,.16-2.4,10.57,10.57,0,0,0-.38-2.49,34.84,34.84,0,0,1-.75-6.36,24.81,24.81,0,0,1,2.06-9.8c.77-1.85,1.66-3.78,3.3-4.94s4.25-1.2,5.42.44A13.08,13.08,0,0,1,161.94,70Z" fill="#725858"/><path d="M182.19,100.48H144.61a1,1,0,0,1-1-.73,4.57,4.57,0,0,1,0-2,6.2,6.2,0,0,0,.1-.7,6.42,6.42,0,0,0-.24-1.68l-.12-.56a35.82,35.82,0,0,1-.77-6.55,25.5,25.5,0,0,1,2.14-10.19c.78-1.91,1.77-4,3.65-5.38a5.26,5.26,0,0,1,6-.16A14.1,14.1,0,0,1,161.79,69h0a13.47,13.47,0,0,1,2.19-.17h.56c3,0,6.17,0,9.07,1.42a18.37,18.37,0,0,1,10.24,16.4s0,0-.66,12.9A1,1,0,0,1,182.19,100.48Zm-36.61-2h35.66c.15-3,.61-11.78.61-11.9A16.32,16.32,0,0,0,172.73,72c-2.48-1.22-5.26-1.22-8.19-1.22H164a9.57,9.57,0,0,0-1.87.15h0a12,12,0,0,0-6.95,3.65,1,1,0,0,1-.8.32,1,1,0,0,1-.75-.42c-.83-1.16-2.8-1.06-4-.2a9.83,9.83,0,0,0-3,4.5,23.74,23.74,0,0,0-2,9.4,34.64,34.64,0,0,0,.73,6.19l.12.52a8.14,8.14,0,0,1,.27,2.2,6.67,6.67,0,0,1-.12.95Z" fill="#093f68"/><path d="M160.72,112.1h5.46a0,0,0,0,1,0,0v3.14a2.32,2.32,0,0,1-2.32,2.32H163a2.32,2.32,0,0,1-2.32-2.32V112.1A0,0,0,0,1,160.72,112.1Z" fill="#ffc9b0"/><path d="M163.86,118.56H163a3.32,3.32,0,0,1-3.32-3.32V112.1a1,1,0,0,1,1-1h5.46a1,1,0,0,1,1,1v3.14A3.32,3.32,0,0,1,163.86,118.56Zm-2.14-5.46v2.14a1.33,1.33,0,0,0,1.32,1.32h.82a1.33,1.33,0,0,0,1.32-1.32V113.1Z" fill="#093f68"/><ellipse cx="148.76" cy="97.92" rx="4.99" ry="4.57" fill="#ffc9b0"/><path d="M148.76,103.49a5.58,5.58,0,1,1,6-5.57A5.79,5.79,0,0,1,148.76,103.49Zm0-9.13a3.59,3.59,0,1,0,4,3.56A3.8,3.8,0,0,0,148.76,94.36Z" fill="#093f68"/><ellipse cx="177.86" cy="97.92" rx="4.99" ry="4.57" fill="#ffc9b0"/><path d="M177.86,103.49a5.58,5.58,0,1,1,6-5.57A5.79,5.79,0,0,1,177.86,103.49Zm0-9.13a3.59,3.59,0,1,0,4,3.56A3.8,3.8,0,0,0,177.86,94.36Z" fill="#093f68"/><path d="M163.45,112.81h0a16,16,0,0,1-16-16v-8.6s4-2.3,5.22-5.92c0,0,6.15,7,12.07,6.52a139.72,139.72,0,0,0,14.69-2v10A16,16,0,0,1,163.45,112.81Z" fill="#ffc9b0"/><path d="M163.45,113.81a17,17,0,0,1-17-17V88.22a1,1,0,0,1,.5-.87s3.71-2.16,4.77-5.36a1,1,0,0,1,.75-.67,1,1,0,0,1,1,.32c.06.07,5.91,6.62,11.24,6.18a139.17,139.17,0,0,0,14.57-2,1,1,0,0,1,.83.2,1,1,0,0,1,.37.78V96.83A17,17,0,0,1,163.45,113.81Zm-15-25v8.06a15,15,0,0,0,30,0V88c-2.35.43-7.82,1.37-13.61,1.83-4.89.4-9.74-3.7-11.83-5.74A14.33,14.33,0,0,1,148.46,88.77Z" fill="#093f68"/><path d="M163.37,100.48a9.32,9.32,0,0,1-1.53-.13,1,1,0,1,1,.35-2,8.32,8.32,0,0,0,1.51.09,14.37,14.37,0,0,0-1.14-2.79,1,1,0,0,1,1.78-.93c.84,1.62,1.74,3.76,1.26,4.83a1.31,1.31,0,0,1-.89.75A5.56,5.56,0,0,1,163.37,100.48Z" fill="#093f68"/><path d="M163.15,164a1,1,0,0,1-1-1V144.92a1,1,0,0,1,2,0V163A1,1,0,0,1,163.15,164Z" fill="#fff"/><path d="M206.94,155h-32a1,1,0,0,1,0-2h32a1,1,0,0,1,0,2Z" fill="#fff"/><path d="M255.37,155H232.68a1,1,0,0,1,0-2h22.69a1,1,0,0,1,0,2Z" fill="#fff"/><circle cx="268.04" cy="171.45" r="32.98" fill="#ffbc0e"/><path d="M268,205.44a34,34,0,1,1,34-34A34,34,0,0,1,268,205.44Zm0-66a32,32,0,1,0,32,32A32,32,0,0,0,268,139.47Z" fill="#093f68"/><path d="M279.6,171.27a1.75,1.75,0,0,1-1.75-1.75v-8.61a9.81,9.81,0,1,0-19.61,0v8.61a1.75,1.75,0,0,1-3.5,0v-8.61a13.31,13.31,0,1,1,26.61,0v8.61A1.75,1.75,0,0,1,279.6,171.27Z" fill="#70cc40"/><path d="M268,147.39a13.43,13.43,0,0,1,13.31,13.52v8.61a1.75,1.75,0,0,1-3.5,0v-8.61a9.81,9.81,0,1,0-19.61,0v8.61a1.75,1.75,0,0,1-3.5,0v-8.61A13.43,13.43,0,0,1,268,147.39m0-2a15.43,15.43,0,0,0-15.3,15.52v8.61a3.75,3.75,0,0,0,7.5,0v-8.61a7.81,7.81,0,1,1,15.61,0v8.61a3.75,3.75,0,0,0,7.5,0v-8.61A15.43,15.43,0,0,0,268,145.39Z" fill="#093f68"/><rect x="249.47" y="165.65" width="37.15" height="26.31" rx="3.68" fill="#70cc40"/><path d="M282.94,193H253.15a4.69,4.69,0,0,1-4.68-4.68V169.33a4.69,4.69,0,0,1,4.68-4.68h29.79a4.69,4.69,0,0,1,4.68,4.68v18.95A4.69,4.69,0,0,1,282.94,193Zm-29.79-26.31a2.68,2.68,0,0,0-2.68,2.68v18.95a2.68,2.68,0,0,0,2.68,2.68h29.79a2.68,2.68,0,0,0,2.68-2.68V169.33a2.68,2.68,0,0,0-2.68-2.68Z" fill="#093f68"/><path d="M271.15,175.49a3.11,3.11,0,1,0-4.44,2.79v4.06a1.34,1.34,0,1,0,2.67,0v-4.06A3.1,3.1,0,0,0,271.15,175.49Z" fill="#093f68"/><path d="M268,184.68a2.34,2.34,0,0,1-2.33-2.34v-3.49a4.11,4.11,0,1,1,4.67,0v3.49A2.34,2.34,0,0,1,268,184.68Zm0-11.29a2.11,2.11,0,0,0-2.1,2.1,2.08,2.08,0,0,0,1.2,1.89,1,1,0,0,1,.57.9v4.06a.34.34,0,1,0,.67,0v-4.06a1,1,0,0,1,.57-.9,2.08,2.08,0,0,0,1.2-1.89A2.11,2.11,0,0,0,268,173.39Z" fill="#093f68"/><path d="M154.24,135.33a1,1,0,0,1-1-1V123.45a1,1,0,1,1,2,0v10.88A1,1,0,0,1,154.24,135.33Z" fill="#093f68"/><path d="M172.25,135.33a1,1,0,0,1-1-1V123.45a1,1,0,1,1,2,0v10.88A1,1,0,0,1,172.25,135.33Z" fill="#093f68"/></g></svg>